<svg xmlns="http://www.w3.org/2000/svg" width="1200" height="800" viewBox="0 0 1200 800" role="img" aria-label="Tecnologías confirmadas por Andy Luis: web, backend, datos, nube, contenedores y CI/CD"><defs><linearGradient id="bg" x1="0" y1="0" x2="1" y2="1"><stop offset="0" stop-color="#0c1424" /><stop offset="1" stop-color="#091522" /></linearGradient><pattern id="grid" width="24" height="24" patternUnits="userSpaceOnUse"><path d="M24 0H0V24" fill="none" stroke="#183048" stroke-width=".6" /></pattern></defs><rect width="1200" height="800" rx="20" fill="url(#bg)" /><rect width="1200" height="800" rx="20" fill="url(#grid)" opacity=".55" /><rect x="15" y="15" width="1170" height="770" rx="14" fill="none" stroke="#2a4561" stroke-width="2" /><path d="M15 64H1185" stroke="#2a4561" /><circle cx="39" cy="39" r="5" fill="#38bdf8" /><circle cx="59" cy="39" r="5" fill="#64d8e9" /><circle cx="79" cy="39" r="5" fill="#7899b7" /><text x="112" y="45" fill="#90a9c3" font-family="ui-monospace,SFMono-Regular,Consolas,monospace" font-size="15" font-weight="600">andy@dev:~ / stack.yml</text><rect x="1000" y="26" width="150" height="28" rx="14" fill="#153b4e" stroke="#3d9bb6" /><text x="1023" y="45" fill="#82e6ef" font-family="ui-monospace,SFMono-Regular,Consolas,monospace" font-size="13" font-weight="700">●  CONFIRMADO</text><text x="42" y="112" fill="#eef8ff" font-family="ui-monospace,SFMono-Regular,Consolas,monospace" font-size="34" font-weight="700">Herramientas que uso</text><text x="43" y="139" fill="#8da8c0" font-family="ui-monospace,SFMono-Regular,Consolas,monospace" font-size="15" font-weight="400">Una vista de mi stack, organizada como mi espacio de trabajo.</text><rect x="42" y="165" width="545" height="170" rx="12" fill="#101f31" stroke="#31516a" stroke-width="1.5" /><path d="M43 217H586" stroke="#274157" /><rect x="57" y="181" width="37" height="27" rx="5" fill="#58c8ff" opacity=".16" /><text x="63" y="200" fill="#58c8ff" font-family="ui-monospace,SFMono-Regular,Consolas,monospace" font-size="14" font-weight="700">01</text><text x="109" y="201" fill="#e8f3fc" font-family="ui-monospace,SFMono-Regular,Consolas,monospace" font-size="21" font-weight="700" letter-spacing="1">FRONTEND</text><text x="573" y="201" fill="#58c8ff" font-family="ui-monospace,SFMono-Regular,Consolas,monospace" font-size="12" font-weight="700" text-anchor="end">04</text><text x="63" y="242" fill="#8da8c0" font-family="ui-monospace,SFMono-Regular,Consolas,monospace" font-size="13" font-weight="400">Interfaz y experiencia</text><rect x="63" y="271" width="110" height="30" rx="6" fill="#173249" stroke="#58c8ff" stroke-opacity=".55" /><text x="73" y="291" fill="#e9f6ff" font-family="ui-monospace,SFMono-Regular,Consolas,monospace" font-size="14" font-weight="600">JavaScript</text><rect x="182" y="271" width="110" height="30" rx="6" fill="#173249" stroke="#58c8ff" stroke-opacity=".55" /><text x="192" y="291" fill="#e9f6ff" font-family="ui-monospace,SFMono-Regular,Consolas,monospace" font-size="14" font-weight="600">TypeScript</text><rect x="301" y="271" width="65" height="30" rx="6" fill="#173249" stroke="#58c8ff" stroke-opacity=".55" /><text x="311" y="291" fill="#e9f6ff" font-family="ui-monospace,SFMono-Regular,Consolas,monospace" font-size="14" font-weight="600">React</text><rect x="375" y="271" width="83" height="30" rx="6" fill="#173249" stroke="#58c8ff" stroke-opacity=".55" /><text x="385" y="291" fill="#e9f6ff" font-family="ui-monospace,SFMono-Regular,Consolas,monospace" font-size="14" font-weight="600">Next.js</text><rect x="613" y="165" width="545" height="170" rx="12" fill="#101f31" stroke="#31516a" stroke-width="1.5" /><path d="M614 217H1157" stroke="#274157" /><rect x="628" y="181" width="37" height="27" rx="5" fill="#56dfc4" opacity=".16" /><text x="634" y="200" fill="#56dfc4" font-family="ui-monospace,SFMono-Regular,Consolas,monospace" font-size="14" font-weight="700">02</text><text x="680" y="201" fill="#e8f3fc" font-family="ui-monospace,SFMono-Regular,Consolas,monospace" font-size="21" font-weight="700" letter-spacing="1">BACKEND</text><text x="1144" y="201" fill="#56dfc4" font-family="ui-monospace,SFMono-Regular,Consolas,monospace" font-size="12" font-weight="700" text-anchor="end">03</text><text x="634" y="242" fill="#8da8c0" font-family="ui-monospace,SFMono-Regular,Consolas,monospace" font-size="13" font-weight="400">Servicios y APIs</text><rect x="634" y="271" width="83" height="30" rx="6" fill="#173249" stroke="#56dfc4" stroke-opacity=".55" /><text x="644" y="291" fill="#e9f6ff" font-family="ui-monospace,SFMono-Regular,Consolas,monospace" font-size="14" font-weight="600">Node.js</text><rect x="726" y="271" width="74" height="30" rx="6" fill="#173249" stroke="#56dfc4" stroke-opacity=".55" /><text x="736" y="291" fill="#e9f6ff" font-family="ui-monospace,SFMono-Regular,Consolas,monospace" font-size="14" font-weight="600">Python</text><rect x="809" y="271" width="83" height="30" rx="6" fill="#173249" stroke="#56dfc4" stroke-opacity=".55" /><text x="819" y="291" fill="#e9f6ff" font-family="ui-monospace,SFMono-Regular,Consolas,monospace" font-size="14" font-weight="600">FastAPI</text><rect x="42" y="355" width="545" height="170" rx="12" fill="#101f31" stroke="#31516a" stroke-width="1.5" /><path d="M43 407H586" stroke="#274157" /><rect x="57" y="371" width="37" height="27" rx="5" fill="#9aa7ff" opacity=".16" /><text x="63" y="390" fill="#9aa7ff" font-family="ui-monospace,SFMono-Regular,Consolas,monospace" font-size="14" font-weight="700">03</text><text x="109" y="391" fill="#e8f3fc" font-family="ui-monospace,SFMono-Regular,Consolas,monospace" font-size="21" font-weight="700" letter-spacing="1">DATOS</text><text x="573" y="391" fill="#9aa7ff" font-family="ui-monospace,SFMono-Regular,Consolas,monospace" font-size="12" font-weight="700" text-anchor="end">03</text><text x="63" y="432" fill="#8da8c0" font-family="ui-monospace,SFMono-Regular,Consolas,monospace" font-size="13" font-weight="400">Persistencia</text><rect x="63" y="461" width="65" height="30" rx="6" fill="#173249" stroke="#9aa7ff" stroke-opacity=".55" /><text x="73" y="481" fill="#e9f6ff" font-family="ui-monospace,SFMono-Regular,Consolas,monospace" font-size="14" font-weight="600">MySQL</text><rect x="137" y="461" width="110" height="30" rx="6" fill="#173249" stroke="#9aa7ff" stroke-opacity=".55" /><text x="147" y="481" fill="#e9f6ff" font-family="ui-monospace,SFMono-Regular,Consolas,monospace" font-size="14" font-weight="600">PostgreSQL</text><rect x="256" y="461" width="83" height="30" rx="6" fill="#173249" stroke="#9aa7ff" stroke-opacity=".55" /><text x="266" y="481" fill="#e9f6ff" font-family="ui-monospace,SFMono-Regular,Consolas,monospace" font-size="14" font-weight="600">MongoDB</text><rect x="613" y="355" width="545" height="170" rx="12" fill="#101f31" stroke="#31516a" stroke-width="1.5" /><path d="M614 407H1157" stroke="#274157" /><rect x="628" y="371" width="37" height="27" rx="5" fill="#ffc78a" opacity=".16" /><text x="634" y="390" fill="#ffc78a" font-family="ui-monospace,SFMono-Regular,Consolas,monospace" font-size="14" font-weight="700">04</text><text x="680" y="391" fill="#e8f3fc" font-family="ui-monospace,SFMono-Regular,Consolas,monospace" font-size="21" font-weight="700" letter-spacing="1">CLOUD</text><text x="1144" y="391" fill="#ffc78a" font-family="ui-monospace,SFMono-Regular,Consolas,monospace" font-size="12" font-weight="700" text-anchor="end">03</text><text x="634" y="432" fill="#8da8c0" font-family="ui-monospace,SFMono-Regular,Consolas,monospace" font-size="13" font-weight="400">Plataformas y automatización</text><rect x="634" y="461" width="47" height="30" rx="6" fill="#173249" stroke="#ffc78a" stroke-opacity=".55" /><text x="644" y="481" fill="#e9f6ff" font-family="ui-monospace,SFMono-Regular,Consolas,monospace" font-size="14" font-weight="600">AWS</text><rect x="690" y="461" width="65" height="30" rx="6" fill="#173249" stroke="#ffc78a" stroke-opacity=".55" /><text x="700" y="481" fill="#e9f6ff" font-family="ui-monospace,SFMono-Regular,Consolas,monospace" font-size="14" font-weight="600">Azure</text><rect x="764" y="461" width="83" height="30" rx="6" fill="#173249" stroke="#ffc78a" stroke-opacity=".55" /><text x="774" y="481" fill="#e9f6ff" font-family="ui-monospace,SFMono-Regular,Consolas,monospace" font-size="14" font-weight="600">Ansible</text><rect x="42" y="545" width="545" height="170" rx="12" fill="#101f31" stroke="#31516a" stroke-width="1.5" /><path d="M43 597H586" stroke="#274157" /><rect x="57" y="561" width="37" height="27" rx="5" fill="#8bb9ff" opacity=".16" /><text x="63" y="580" fill="#8bb9ff" font-family="ui-monospace,SFMono-Regular,Consolas,monospace" font-size="14" font-weight="700">05</text><text x="109" y="581" fill="#e8f3fc" font-family="ui-monospace,SFMono-Regular,Consolas,monospace" font-size="21" font-weight="700" letter-spacing="1">CONTENEDORES</text><text x="573" y="581" fill="#8bb9ff" font-family="ui-monospace,SFMono-Regular,Consolas,monospace" font-size="12" font-weight="700" text-anchor="end">02</text><text x="63" y="622" fill="#8da8c0" font-family="ui-monospace,SFMono-Regular,Consolas,monospace" font-size="13" font-weight="400">Ejecución y orquestación</text><rect x="63" y="651" width="74" height="30" rx="6" fill="#173249" stroke="#8bb9ff" stroke-opacity=".55" /><text x="73" y="671" fill="#e9f6ff" font-family="ui-monospace,SFMono-Regular,Consolas,monospace" font-size="14" font-weight="600">Docker</text><rect x="146" y="651" width="110" height="30" rx="6" fill="#173249" stroke="#8bb9ff" stroke-opacity=".55" /><text x="156" y="671" fill="#e9f6ff" font-family="ui-monospace,SFMono-Regular,Consolas,monospace" font-size="14" font-weight="600">Kubernetes</text><rect x="613" y="545" width="545" height="170" rx="12" fill="#101f31" stroke="#31516a" stroke-width="1.5" /><path d="M614 597H1157" stroke="#274157" /><rect x="628" y="561" width="37" height="27" rx="5" fill="#f5a9bc" opacity=".16" /><text x="634" y="580" fill="#f5a9bc" font-family="ui-monospace,SFMono-Regular,Consolas,monospace" font-size="14" font-weight="700">06</text><text x="680" y="581" fill="#e8f3fc" font-family="ui-monospace,SFMono-Regular,Consolas,monospace" font-size="21" font-weight="700" letter-spacing="1">CI / CD</text><text x="1144" y="581" fill="#f5a9bc" font-family="ui-monospace,SFMono-Regular,Consolas,monospace" font-size="12" font-weight="700" text-anchor="end">02</text><text x="634" y="622" fill="#8da8c0" font-family="ui-monospace,SFMono-Regular,Consolas,monospace" font-size="13" font-weight="400">Flujos de integración</text><rect x="634" y="651" width="146" height="30" rx="6" fill="#173249" stroke="#f5a9bc" stroke-opacity=".55" /><text x="644" y="671" fill="#e9f6ff" font-family="ui-monospace,SFMono-Regular,Consolas,monospace" font-size="14" font-weight="600">GitHub Actions</text><rect x="789" y="651" width="101" height="30" rx="6" fill="#173249" stroke="#f5a9bc" stroke-opacity=".55" /><text x="799" y="671" fill="#e9f6ff" font-family="ui-monospace,SFMono-Regular,Consolas,monospace" font-size="14" font-weight="600">GitLab CI</text><path d="M42 739H1158" stroke="#31516a" /><text x="43" y="766" fill="#62d8e7" font-family="ui-monospace,SFMono-Regular,Consolas,monospace" font-size="15" font-weight="700">andy@dev:~$ stack --verified</text><text x="968" y="766" fill="#8da8c0" font-family="ui-monospace,SFMono-Regular,Consolas,monospace" font-size="13" font-weight="400">17 tools · 6 areas</text></svg>